# xmcd
#
# Track frame offsets:
#	150
#	15102
#	28302
#	39881
#	54081
#	65411
#	80603
#	99788
#	114141
#	124879
#	139196
#	150150
#	165307
#	176629
#	189079
#	199300
#	210330
#	226680
#	241774
#
# Disc length: 3466 seconds
#
# Revision: 1
# Processed by: cddbd v1.5.1PL0 Copyright (c) Steve Scherf et al.
# Submitted via: audiograbber 1.83.01
#
DISCID=d30d8813
DTITLE=Hank Locklin - Generations In Song
DYEAR=2001
DGENRE=Country
TTITLE0=Hank Locklin - Between the Tears
TTITLE1=Hank Locklin - Country Honey
TTITLE2=Hank Locklin featuring Dolly Parton - Send Me the Pillow You Dream On
TTITLE3=Hank Locklin featuring Vince Gill - Danny Boy
TTITLE4=Hank Locklin - Flying South
TTITLE5=Hank Locklin - Almost Persuaded
TTITLE6=Hank Locklin w/ Jan Howard - Anna
TTITLE7=Hank Locklin w/ Jeannie Seely and Hank Adam Locklin - Ain't You Even Gonn
TTITLE7=a Cry
TTITLE8=Hank Adam Locklin (guest vocal) - Hot Pepper Doll
TTITLE9=Hank Adam Locklin (guest vocal) - Happy Face
TTITLE10=Hank Locklin - Please Help Me, I'm Falling
TTITLE11=Hank Locklin w/Jeanne Pruett - Grow Old Beside Me
TTITLE12=Hank Locklin - Loving Arms
TTITLE13=Hank Locklin - Let Me Be The One
TTITLE14=Hank Locklin w/ Jett Williams - Hey Good Lookin'
TTITLE15=Hank Locklin w/Brandt, Rush and Tessa Handricks - We're Gonna Go Fishing
TTITLE16=Hank Adam Locklin (guest vocal) - Pecious Love
TTITLE17=Hank Adam Locklin and Brett Brown (guest vocal) - Still Hangs Around My 
TTITLE17=Heart
TTITLE18=Hank Locklin - Love Must Be Gone
EXTD=
EXTT0=
EXTT1=
EXTT2=
EXTT3=
EXTT4=
EXTT5=
EXTT6=
EXTT7=
EXTT8=
EXTT9=
EXTT10=
EXTT11=
EXTT12=
EXTT13=
EXTT14=
EXTT15=
EXTT16=
EXTT17=
EXTT18=
PLAYORDER=
